<svg xmlns="http://www.w3.org/2000/svg" fill="none" viewBox="0 0 60 60"><path fill="#68B738" d="M0 0h60v60h-60z"/><path fill="#fff" d="M23.12 15c-1.07 0-1.07 1.58 0 1.58h6.67v1.6a13.21 13.21 0 0 0-12.23 13.3 13.4 13.4 0 0 0 4.52 10.07c.48.43.54 1.18.1 1.64l-1.53 1.55c-.75.69.36 1.75 1.03 1l2-2.03a1.16 1.16 0 0 1 1.32-.21 12.79 12.79 0 0 0 11.1.06c.43-.21.96-.13 1.3.21l1.95 1.97c.68.64 1.66-.31 1.04-1l-1.45-1.48c-.45-.45-.38-1.2.1-1.63a13.47 13.47 0 0 0 3.42-4.58 13.34 13.34 0 0 0 1.2-5.57c0-7.08-5.43-12.88-12.27-13.3v-1.6h6.67c1.06 0 1.06-1.58 0-1.58h-14.94Zm-4.12 16.48a11.7 11.7 0 0 1 11.6-11.82c6.4 0 11.6 5.28 11.6 11.82s-5.19 11.84-11.6 11.84c-6.4 0-11.6-5.3-11.6-11.84Zm10.8-8.1c0-1.1 1.66-1.1 1.66 0v8.63a.84.84 0 0 1-.25.6.86.86 0 0 1-.6.25.82.82 0 0 1-.57-.23.8.8 0 0 1-.24-.56v-8.69Zm-5 2.62c.31 0 .61-.12.83-.34a1.14 1.14 0 0 0 0-1.63 1.17 1.17 0 0 0-.82-.33c-.3.02-.56.16-.75.37a1.14 1.14 0 0 0 0 1.55c.2.2.46.34.75.37Zm11.6 0c.31 0 .6-.12.82-.34a1.14 1.14 0 0 0 0-1.63 1.17 1.17 0 0 0-.82-.33c-.29.02-.55.16-.75.37a1.14 1.14 0 0 0 0 1.55c.2.2.46.34.75.37Zm-10.43 12.59c0 1.53-2.33 1.53-2.33 0s2.33-1.53 2.33 0Zm4.64 3.44a1.18 1.18 0 0 0 .9-.3 1.15 1.15 0 0 0 .37-.85 1.14 1.14 0 0 0-.38-.85 1.17 1.17 0 0 0-.9-.3c-.28.04-.55.17-.74.38a1.14 1.14 0 0 0 0 1.55c.2.2.46.34.75.37Zm-8.12-10.39a1.14 1.14 0 0 1-.3.89 1.16 1.16 0 0 1-.86.37 1.17 1.17 0 0 1-.86-.37 1.15 1.15 0 0 1-.3-.89c.03-.28.17-.55.38-.74a1.17 1.17 0 0 1 1.57 0c.21.2.34.46.37.74Zm17.39 1.15a1.17 1.17 0 0 0 .9-.29 1.15 1.15 0 0 0 .37-.85 1.14 1.14 0 0 0-.38-.85 1.16 1.16 0 0 0-.9-.3c-.28.03-.54.16-.74.38a1.14 1.14 0 0 0 0 1.54c.2.21.46.35.75.37Zm-2.31 5.8c0 1.53-2.33 1.53-2.33 0s2.33-1.53 2.33 0Z"/></svg>